<svg width="210" height="210" viewBox="0 0 210 210" fill="none" xmlns="http://www.w3.org/2000/svg">
<rect width="210" height="210" rx="26" fill="black"/>
<mask id="path-2-inside-1_95_186" fill="white">
<path d="M93.0211 112.267C92.3739 112.053 91.7263 111.792 91.0682 111.625C89.2981 111.177 87.5189 110.972 85.6862 111.104C85.0867 111.155 84.3943 110.953 83.8483 110.657C81.7323 109.517 80.2785 107.724 79.3076 105.51C78.9032 104.599 78.951 103.614 79.1462 102.663C79.3088 101.852 79.9179 101.603 80.5902 102.095C81.1713 102.518 81.663 103.058 82.2218 103.517C82.9288 104.089 83.6472 104.662 84.3989 105.165C84.9341 105.519 85.5341 105.525 86.1901 105.45C87.0948 105.35 88.0348 105.4 88.9525 105.461C90.1871 105.543 91.4443 105.613 92.6575 105.823C94.0182 106.066 95.2903 106.541 95.9148 108.006C96.0537 108.34 96.3247 108.257 96.5038 108.035C96.7723 107.685 97.0295 107.325 97.2184 106.929C98.6077 104.081 99.4863 101.052 100.285 98.0006C100.931 95.5177 101.508 93.0239 101.644 90.4527C101.712 89.2019 101.723 87.9516 101.802 86.7007C101.822 86.3301 101.988 85.9582 102.132 85.5981C102.287 85.2147 102.568 85.004 103.01 85.0001C103.474 84.9962 103.815 85.2016 103.921 85.6289C104.132 86.4028 104.331 87.1882 104.418 87.9863C104.59 89.4781 104.558 90.9948 104.809 92.4745C105.525 96.5778 106.761 100.526 108.82 104.143C109.337 105.065 110.08 105.857 110.756 106.685C110.939 106.903 111.246 107.028 111.485 107.2C113.671 104.842 116.382 104.113 119.394 104.203C121.908 104.273 124.153 103.421 126.178 102.002C127.246 101.252 128.2 100.341 129.143 99.4299C129.48 99.1029 129.761 98.8921 130.215 99.0502C130.715 99.2196 131.046 99.5871 130.995 100.12C130.943 100.665 130.823 101.233 130.601 101.721C129.68 103.685 128.255 105.214 126.523 106.433C124.138 108.121 121.498 109.139 118.579 109.303C118.036 109.331 117.494 109.428 116.951 109.537C116.691 109.586 116.443 109.727 116.184 109.822C116.173 109.88 116.162 109.949 116.152 110.007C116.493 110.212 116.812 110.453 117.176 110.635C118.802 111.42 120.427 112.17 122.053 112.943C122.565 113.193 123.043 113.501 123.555 113.752C125.295 114.64 126.192 116.229 126.876 117.983C127.119 118.618 127.205 119.288 126.916 119.951C126.761 120.299 126.592 120.382 126.217 120.2C124.261 119.279 122.239 118.521 120.064 118.343C119.894 118.333 119.724 118.3 119.554 118.324C116.682 118.627 114.315 117.339 112.015 115.843C111.583 115.568 111.184 115.236 110.807 114.892C110.419 114.525 109.976 114.436 109.571 114.718C109.054 115.081 108.503 115.491 108.168 116.015C107.632 116.841 107.233 117.771 106.856 118.688C106.236 120.176 105.694 121.697 105.074 123.184C104.941 123.498 104.637 123.732 104.413 124C104.184 123.736 103.911 123.495 103.738 123.196C102.312 120.673 100.908 118.138 99.5153 115.603C99.078 114.82 98.7488 114.73 98.0289 115.234C97.8263 115.375 97.6353 115.538 97.4785 115.725C95.8545 117.661 93.725 118.79 91.4575 119.678C90.2279 120.152 88.9245 119.99 87.6448 119.943C87.1126 119.924 86.5805 119.917 86.0704 119.84C84.9934 119.676 84.0915 120.089 83.2021 120.641C82.6617 120.981 82.0756 121.264 81.4661 121.455C80.8226 121.657 80.4005 121.302 80.3378 120.619C80.2258 119.497 80.6822 118.637 81.4796 117.924C82.9171 116.638 84.631 115.882 86.3914 115.254C87.328 114.921 88.311 114.705 89.2588 114.361C90.2519 114.005 91.2215 113.568 92.1798 113.131C92.4955 112.99 92.7421 112.71 93.0345 112.499C93.0339 112.43 93.0219 112.349 93.0211 112.267Z"/>
</mask>
<path d="M93.0211 112.267C92.3739 112.053 91.7263 111.792 91.0682 111.625C89.2981 111.177 87.5189 110.972 85.6862 111.104C85.0867 111.155 84.3943 110.953 83.8483 110.657C81.7323 109.517 80.2785 107.724 79.3076 105.51C78.9032 104.599 78.951 103.614 79.1462 102.663C79.3088 101.852 79.9179 101.603 80.5902 102.095C81.1713 102.518 81.663 103.058 82.2218 103.517C82.9288 104.089 83.6472 104.662 84.3989 105.165C84.9341 105.519 85.5341 105.525 86.1901 105.45C87.0948 105.35 88.0348 105.4 88.9525 105.461C90.1871 105.543 91.4443 105.613 92.6575 105.823C94.0182 106.066 95.2903 106.541 95.9148 108.006C96.0537 108.34 96.3247 108.257 96.5038 108.035C96.7723 107.685 97.0295 107.325 97.2184 106.929C98.6077 104.081 99.4863 101.052 100.285 98.0006C100.931 95.5177 101.508 93.0239 101.644 90.4527C101.712 89.2019 101.723 87.9516 101.802 86.7007C101.822 86.3301 101.988 85.9582 102.132 85.5981C102.287 85.2147 102.568 85.004 103.01 85.0001C103.474 84.9962 103.815 85.2016 103.921 85.6289C104.132 86.4028 104.331 87.1882 104.418 87.9863C104.59 89.4781 104.558 90.9948 104.809 92.4745C105.525 96.5778 106.761 100.526 108.82 104.143C109.337 105.065 110.08 105.857 110.756 106.685C110.939 106.903 111.246 107.028 111.485 107.2C113.671 104.842 116.382 104.113 119.394 104.203C121.908 104.273 124.153 103.421 126.178 102.002C127.246 101.252 128.2 100.341 129.143 99.4299C129.48 99.1029 129.761 98.8921 130.215 99.0502C130.715 99.2196 131.046 99.5871 130.995 100.12C130.943 100.665 130.823 101.233 130.601 101.721C129.68 103.685 128.255 105.214 126.523 106.433C124.138 108.121 121.498 109.139 118.579 109.303C118.036 109.331 117.494 109.428 116.951 109.537C116.691 109.586 116.443 109.727 116.184 109.822C116.173 109.88 116.162 109.949 116.152 110.007C116.493 110.212 116.812 110.453 117.176 110.635C118.802 111.42 120.427 112.17 122.053 112.943C122.565 113.193 123.043 113.501 123.555 113.752C125.295 114.64 126.192 116.229 126.876 117.983C127.119 118.618 127.205 119.288 126.916 119.951C126.761 120.299 126.592 120.382 126.217 120.2C124.261 119.279 122.239 118.521 120.064 118.343C119.894 118.333 119.724 118.3 119.554 118.324C116.682 118.627 114.315 117.339 112.015 115.843C111.583 115.568 111.184 115.236 110.807 114.892C110.419 114.525 109.976 114.436 109.571 114.718C109.054 115.081 108.503 115.491 108.168 116.015C107.632 116.841 107.233 117.771 106.856 118.688C106.236 120.176 105.694 121.697 105.074 123.184C104.941 123.498 104.637 123.732 104.413 124C104.184 123.736 103.911 123.495 103.738 123.196C102.312 120.673 100.908 118.138 99.5153 115.603C99.078 114.82 98.7488 114.73 98.0289 115.234C97.8263 115.375 97.6353 115.538 97.4785 115.725C95.8545 117.661 93.725 118.79 91.4575 119.678C90.2279 120.152 88.9245 119.99 87.6448 119.943C87.1126 119.924 86.5805 119.917 86.0704 119.84C84.9934 119.676 84.0915 120.089 83.2021 120.641C82.6617 120.981 82.0756 121.264 81.4661 121.455C80.8226 121.657 80.4005 121.302 80.3378 120.619C80.2258 119.497 80.6822 118.637 81.4796 117.924C82.9171 116.638 84.631 115.882 86.3914 115.254C87.328 114.921 88.311 114.705 89.2588 114.361C90.2519 114.005 91.2215 113.568 92.1798 113.131C92.4955 112.99 92.7421 112.71 93.0345 112.499C93.0339 112.43 93.0219 112.349 93.0211 112.267Z" fill="url(#paint0_linear_95_186)"/>
<path d="M93.0211 112.267L111.02 112.088L110.892 99.2213L98.6761 95.1788L93.0211 112.267ZM91.0682 111.625L95.516 94.1828L95.4993 94.1786L95.4827 94.1743L91.0682 111.625ZM85.6862 111.104L84.3976 93.15L84.2711 93.159L84.1448 93.1699L85.6862 111.104ZM83.8483 110.657L92.4359 94.8372L92.4091 94.8227L92.3823 94.8082L83.8483 110.657ZM79.3076 105.51L95.7925 98.2815L95.7762 98.2443L95.7597 98.2072L79.3076 105.51ZM79.1462 102.663L96.7787 106.282L96.7872 106.24L96.7956 106.199L79.1462 102.663ZM80.5902 102.095L69.9601 116.621L69.976 116.633L69.9918 116.644L80.5902 102.095ZM82.2218 103.517L70.8091 117.436L70.8502 117.47L70.8915 117.503L82.2218 103.517ZM84.3989 105.165L74.3904 120.126L74.4268 120.15L74.4634 120.174L84.3989 105.165ZM86.1901 105.45L84.2036 87.56L84.1724 87.5635L84.1411 87.5671L86.1901 105.45ZM88.9525 105.461L87.752 123.421L87.7593 123.421L88.9525 105.461ZM92.6575 105.823L95.8218 88.1029L95.7706 88.0938L95.7193 88.0849L92.6575 105.823ZM95.9148 108.006L112.538 101.102L112.506 101.024L112.473 100.947L95.9148 108.006ZM96.5038 108.035L110.5 119.354L110.642 119.178L110.78 118.998L96.5038 108.035ZM97.2184 106.929L81.0404 99.0382L81.0093 99.1018L80.9788 99.1657L97.2184 106.929ZM100.285 98.0006L117.698 102.56L117.702 102.545L117.706 102.53L100.285 98.0006ZM101.644 90.4527L83.6704 89.4731L83.6695 89.4899L83.6686 89.5067L101.644 90.4527ZM101.802 86.7007L119.766 87.839L119.773 87.7379L119.778 87.6367L101.802 86.7007ZM102.132 85.5981L85.4457 78.8484L85.4322 78.8818L85.4188 78.9153L102.132 85.5981ZM103.01 85.0001L102.859 67.0007L102.851 67.0008L103.01 85.0001ZM103.921 85.6289L86.4492 89.9565L86.4989 90.1573L86.5532 90.3568L103.921 85.6289ZM104.418 87.9863L86.5229 89.927L86.5293 89.9865L86.5362 90.0459L104.418 87.9863ZM104.809 92.4745L87.0626 95.4847L87.0698 95.5269L87.0771 95.5689L104.809 92.4745ZM108.82 104.143L124.514 95.3286L124.489 95.2839L124.463 95.2393L108.82 104.143ZM110.756 106.685L96.8082 118.064L96.8868 118.16L96.9667 118.255L110.756 106.685ZM111.485 107.2L100.986 121.821L113.884 131.082L124.682 119.44L111.485 107.2ZM119.394 104.203L118.857 122.195L118.872 122.195L118.886 122.195L119.394 104.203ZM126.178 102.002L136.504 116.746L136.511 116.74L136.519 116.735L126.178 102.002ZM129.143 99.4299L141.651 112.374L141.67 112.356L141.688 112.339L129.143 99.4299ZM130.215 99.0502L124.298 116.05L124.367 116.074L124.437 116.098L130.215 99.0502ZM130.995 100.12L113.079 98.38L113.077 98.3981L113.076 98.4163L130.995 100.12ZM130.601 101.721L146.896 109.368L146.942 109.271L146.986 109.173L130.601 101.721ZM126.523 106.433L116.166 91.7113L116.145 91.7257L116.125 91.7401L126.523 106.433ZM118.579 109.303L119.502 127.279L119.546 127.277L119.59 127.275L118.579 109.303ZM116.951 109.537L120.259 127.231L120.378 127.208L120.495 127.185L116.951 109.537ZM116.184 109.822L110.009 92.9138L100.356 96.439L98.4848 106.544L116.184 109.822ZM116.152 110.007L98.4601 106.689L96.1539 118.984L106.873 125.432L116.152 110.007ZM117.176 110.635L109.116 126.73L109.234 126.789L109.353 126.846L117.176 110.635ZM122.053 112.943L129.958 96.7717L129.872 96.7296L129.786 96.6884L122.053 112.943ZM123.555 113.752L131.737 97.7186L131.602 97.6498L131.466 97.5834L123.555 113.752ZM126.876 117.983L143.68 111.533L143.664 111.489L143.646 111.445L126.876 117.983ZM126.916 119.951L143.356 127.282L143.388 127.21L143.42 127.137L126.916 119.951ZM126.217 120.2L134.072 104.005L133.978 103.959L133.884 103.915L126.217 120.2ZM120.064 118.343L121.532 100.403L121.329 100.386L121.126 100.374L120.064 118.343ZM119.554 118.324L121.44 136.225L121.801 136.187L122.16 136.135L119.554 118.324ZM112.015 115.843L121.832 100.755L121.741 100.696L121.65 100.638L112.015 115.843ZM110.807 114.892L98.4389 127.97L98.5538 128.079L98.6706 128.186L110.807 114.892ZM109.571 114.718L99.304 99.9331L99.2651 99.9602L99.2263 99.9874L109.571 114.718ZM108.168 116.015L123.271 125.808L123.302 125.76L123.332 125.712L108.168 116.015ZM106.856 118.688L123.468 125.619L123.488 125.572L123.508 125.524L106.856 118.688ZM105.074 123.184L121.644 130.214L121.665 130.165L121.686 130.115L105.074 123.184ZM104.413 124L90.8026 135.779L104.654 151.784L118.226 135.542L104.413 124ZM103.738 123.196L88.0694 132.055L88.1051 132.118L88.1412 132.181L103.738 123.196ZM99.5153 115.603L115.292 106.937L115.262 106.884L115.233 106.831L99.5153 115.603ZM98.0289 115.234L108.3 130.016L108.326 129.998L108.351 129.98L98.0289 115.234ZM97.4785 115.725L83.6979 104.145L83.6889 104.156L97.4785 115.725ZM91.4575 119.678L97.9293 136.475L97.9749 136.457L98.0205 136.439L91.4575 119.678ZM87.6448 119.943L88.301 101.955L88.2905 101.954L88.2799 101.954L87.6448 119.943ZM86.0704 119.84L83.3562 137.635L83.375 137.638L83.3938 137.64L86.0704 119.84ZM83.2021 120.641L73.7114 105.346L73.661 105.378L73.6108 105.409L83.2021 120.641ZM81.4661 121.455L76.0935 104.275L76.0804 104.279L76.0674 104.283L81.4661 121.455ZM80.3378 120.619L98.2622 118.971L98.2558 118.902L98.2488 118.832L80.3378 120.619ZM81.4796 117.924L93.4782 131.341L93.4806 131.339L81.4796 117.924ZM86.3914 115.254L80.374 98.2892L80.3556 98.2957L80.3372 98.3023L86.3914 115.254ZM89.2588 114.361L83.1852 97.4163L83.1521 97.4281L83.1191 97.4401L89.2588 114.361ZM92.1798 113.131L84.8193 96.705L84.7675 96.7282L84.7159 96.7517L92.1798 113.131ZM93.0345 112.499L103.563 127.098L111.111 121.655L111.034 112.349L93.0345 112.499ZM98.6761 95.1788C98.687 95.1824 98.6594 95.1734 98.5273 95.1268C98.4497 95.0994 98.1735 95.0012 97.9567 94.9258C97.4839 94.7615 96.5898 94.4566 95.516 94.1828L86.6204 129.066C86.3931 129.008 86.2312 128.959 86.1582 128.936C86.0881 128.914 86.068 128.906 86.1408 128.931C86.1757 128.944 86.2208 128.959 86.2904 128.984C86.3352 129 86.4643 129.046 86.5437 129.074C86.7355 129.141 87.0316 129.245 87.366 129.356L98.6761 95.1788ZM95.4827 94.1743C92.1665 93.3354 88.446 92.8594 84.3976 93.15L86.9747 129.058C86.8023 129.07 86.6659 129.063 86.5866 129.055C86.5124 129.048 86.528 129.043 86.6536 129.075L95.4827 94.1743ZM84.1448 93.1699C86.3324 92.9819 88.0891 93.2849 89.2227 93.5759C90.405 93.8794 91.4717 94.3138 92.4359 94.8372L75.2606 126.476C77.8263 127.869 82.0687 129.481 87.2276 129.038L84.1448 93.1699ZM92.3823 94.8082C93.3316 95.3194 94.1448 95.9957 94.7706 96.7202C95.3705 97.4148 95.6708 98.0038 95.7925 98.2815L62.8227 112.738C65.0593 117.839 68.9658 123.086 75.3142 126.505L92.3823 94.8082ZM95.7597 98.2072C97.5769 102.301 96.8946 105.717 96.7787 106.282L61.5137 99.0446C61.0074 101.512 60.2294 106.896 62.8555 112.812L95.7597 98.2072ZM96.7956 106.199C96.1777 109.283 93.7427 115.668 86.329 118.616C78.8209 121.602 72.5846 118.542 69.9601 116.621L91.2202 87.5692C87.9234 85.1566 81.0465 81.9744 73.0251 85.1645C65.0982 88.3171 62.2773 95.2314 61.4968 99.1279L96.7956 106.199ZM69.9918 116.644C69.6486 116.394 69.4033 116.189 69.2825 116.085C69.1704 115.989 69.1156 115.936 69.2012 116.015C69.2569 116.067 69.2753 116.084 69.3789 116.18C69.4586 116.254 69.5729 116.36 69.7016 116.477C69.9556 116.708 70.3408 117.052 70.8091 117.436L93.6345 89.5971C93.8234 89.752 93.9376 89.8569 93.9241 89.8446C93.8526 89.7796 93.8903 89.8128 93.6275 89.5701C93.3136 89.2802 92.39 88.4213 91.1885 87.5461L69.9918 116.644ZM70.8915 117.503C71.5944 118.072 72.8825 119.117 74.3904 120.126L94.4074 90.2038C94.4446 90.2286 94.4026 90.2025 94.2481 90.084C94.0859 89.9596 93.8836 89.7985 93.5522 89.53L70.8915 117.503ZM74.4634 120.174C80.5735 124.219 86.7116 123.508 88.2391 123.333L84.1411 87.5671C84.3566 87.5424 89.2947 86.8192 94.3344 90.1552L74.4634 120.174ZM88.1766 123.34C87.9029 123.371 87.6854 123.383 87.5386 123.389C87.3922 123.394 87.2976 123.393 87.2706 123.392C87.2445 123.392 87.2632 123.392 87.3484 123.396C87.4371 123.401 87.5567 123.408 87.752 123.421L90.153 87.501C89.2938 87.4436 86.8867 87.2621 84.2036 87.56L88.1766 123.34ZM87.7593 123.421C88.5114 123.471 88.8699 123.493 89.2525 123.526C89.5858 123.555 89.6622 123.572 89.5958 123.56L95.7193 88.0849C93.363 87.6782 91.0114 87.5581 90.1456 87.5006L87.7593 123.421ZM89.4932 123.542C89.3404 123.515 87.5736 123.225 85.4514 121.98C82.9151 120.491 80.6543 118.109 79.3566 115.064L112.473 100.947C108.156 90.8207 98.8736 88.6479 95.8218 88.1029L89.4932 123.542ZM79.2913 114.909C80.179 117.047 81.9223 120.098 85.2502 122.59C88.8339 125.274 93.1405 126.456 97.3199 126.194C104.617 125.736 108.919 121.309 110.5 119.354L82.5079 96.7164C83.9098 94.983 87.9869 90.7079 95.0685 90.2641C99.1404 90.009 103.342 91.1626 106.83 93.7751C110.063 96.1959 111.72 99.1319 112.538 101.102L79.2913 114.909ZM110.78 118.998C111.219 118.427 112.427 116.85 113.458 114.693L80.9788 99.1657C81.3301 98.4307 81.6697 97.8835 81.8852 97.5582C82.0938 97.2432 82.2461 97.048 82.2277 97.0719L110.78 118.998ZM113.396 114.821C115.619 110.263 116.86 105.76 117.698 102.56L82.8725 93.4408C82.1122 96.3442 81.596 97.899 81.0404 99.0382L113.396 114.821ZM117.706 102.53C118.391 99.8946 119.382 95.9076 119.619 91.3987L83.6686 89.5067C83.6352 90.1401 83.4705 91.1409 82.8646 93.4708L117.706 102.53ZM119.617 91.4324C119.663 90.5806 119.69 89.742 119.709 89.1885C119.73 88.5584 119.745 88.1719 119.766 87.839L83.8385 85.5623C83.7803 86.4804 83.7504 87.3446 83.7293 87.965C83.7056 88.6621 83.6921 89.074 83.6704 89.4731L119.617 91.4324ZM119.778 87.6367C119.669 89.7388 119.181 91.2901 118.98 91.8875C118.868 92.2197 118.775 92.4548 118.758 92.4984C118.748 92.523 118.744 92.5336 118.761 92.4909C118.771 92.4667 118.809 92.3731 118.846 92.2808L85.4188 78.9153C85.5387 78.6155 85.1349 79.5898 84.861 80.4034C84.5359 81.3694 83.9556 83.292 83.8268 85.7647L119.778 87.6367ZM118.819 92.3477C117.9 94.6197 116.091 97.5965 112.765 99.918C109.393 102.271 105.859 102.976 103.169 102.999L102.851 67.0008C99.7191 67.0284 95.8239 67.8408 92.1629 70.3955C88.5466 72.9191 86.5198 76.193 85.4457 78.8484L118.819 92.3477ZM103.161 102.999C100.814 103.019 97.2145 102.527 93.621 100.133C89.7429 97.5502 87.3883 93.7483 86.4492 89.9565L121.393 81.3013C120.348 77.0821 117.77 72.9639 113.579 70.1721C109.672 67.5698 105.67 66.9771 102.859 67.0007L103.161 102.999ZM86.5532 90.3568C86.5938 90.5059 86.6175 90.5958 86.6332 90.6574C86.6483 90.7166 86.6491 90.723 86.6423 90.6923C86.6306 90.6393 86.5698 90.3597 86.5229 89.927L122.313 86.0456C122.059 83.7076 121.513 81.7228 121.289 80.901L86.5532 90.3568ZM86.5362 90.0459C86.5338 90.025 86.5415 90.0871 86.5565 90.3114C86.5765 90.6101 86.5836 90.7684 86.616 91.3106C86.6648 92.1259 86.7618 93.7112 87.0626 95.4847L122.556 89.4642C122.605 89.7581 122.593 89.8452 122.552 89.1592C122.539 88.9508 122.506 88.3578 122.476 87.9062C122.441 87.3803 122.388 86.6934 122.3 85.9266L86.5362 90.0459ZM87.0771 95.5689C88.0562 101.179 89.8537 107.21 93.1762 113.047L124.463 95.2393C123.668 93.8423 122.994 91.9762 122.541 89.38L87.0771 95.5689ZM93.1258 112.958C94.0791 114.655 95.0829 115.96 95.6968 116.724C96.0083 117.111 96.3016 117.46 96.4727 117.663C96.6832 117.913 96.7492 117.991 96.8082 118.064L124.703 95.3066C124.554 95.1239 124.416 94.9585 124.302 94.8223C124.245 94.7537 124.19 94.6888 124.142 94.6314C124.118 94.6026 124.094 94.5745 124.072 94.5485C124.05 94.5216 124.03 94.498 124.009 94.4739C123.927 94.3759 123.873 94.3119 123.828 94.2579C123.785 94.2062 123.766 94.1818 123.76 94.1752C123.756 94.1692 123.772 94.1897 123.804 94.2313C123.836 94.2731 123.887 94.3422 123.953 94.435C124.082 94.6176 124.284 94.9205 124.514 95.3286L93.1258 112.958ZM96.9667 118.255C98.0491 119.545 99.1189 120.467 99.9009 121.072C100.67 121.667 101.331 122.083 101.648 122.279C101.815 122.382 101.954 122.465 102.007 122.496C102.098 122.55 102.044 122.518 102.02 122.503C101.957 122.466 101.526 122.209 100.986 121.821L121.983 92.5785C121.324 92.105 120.765 91.7678 120.572 91.6517C120.514 91.617 120.465 91.588 120.436 91.571C120.422 91.5624 120.409 91.5544 120.401 91.5501C120.392 91.5448 120.39 91.5432 120.388 91.5421C120.374 91.534 120.448 91.5778 120.551 91.641C120.738 91.7563 121.273 92.0902 121.925 92.5951C122.591 93.1098 123.554 93.9341 124.545 95.1151L96.9667 118.255ZM124.682 119.44C123.776 120.418 122.513 121.269 121.09 121.768C119.805 122.219 118.924 122.197 118.857 122.195L119.93 86.2106C113.381 86.0153 104.997 87.7257 98.2874 94.9593L124.682 119.44ZM118.886 122.195C126.097 122.399 132.066 119.854 136.504 116.746L115.851 87.2588C116.004 87.1519 116.456 86.862 117.203 86.6094C117.987 86.3443 118.918 86.182 119.901 86.2097L118.886 122.195ZM136.519 116.735C138.906 115.06 140.81 113.187 141.651 112.374L116.635 86.4859C116.405 86.7082 116.234 86.8724 116.079 87.0188C115.928 87.1612 115.824 87.2563 115.75 87.3218C115.595 87.4598 115.641 87.4063 115.836 87.2693L136.519 116.735ZM141.688 112.339C141.624 112.401 141.165 112.851 140.49 113.38C139.791 113.927 138.558 114.803 136.836 115.555C135.015 116.35 132.836 116.923 130.401 116.99C128.004 117.056 125.929 116.618 124.298 116.05L136.133 82.0507C131.888 80.5733 127.005 80.566 122.435 82.5611C118.977 84.0702 116.78 86.3447 116.599 86.5213L141.688 112.339ZM124.437 116.098C122.205 115.341 119.099 113.728 116.571 110.457C113.818 106.897 112.676 102.531 113.079 98.38L148.91 101.86C149.365 97.1764 148.083 92.3602 145.053 88.4401C142.247 84.81 138.725 82.9287 135.993 82.0028L124.437 116.098ZM113.076 98.4163C113.116 97.9952 113.192 97.4475 113.345 96.8012C113.495 96.1665 113.754 95.2866 114.216 94.2691L146.986 109.173C148.3 106.286 148.745 103.601 148.914 101.824L113.076 98.4163ZM114.307 94.0738C114.96 92.6813 115.855 91.93 116.166 91.7113L136.88 121.155C140.656 118.498 144.399 114.69 146.896 109.368L114.307 94.0738ZM116.125 91.7401C116.101 91.7571 116.242 91.6546 116.544 91.5435C116.859 91.4277 117.219 91.3512 117.568 91.3316L119.59 127.275C126.273 126.899 132.113 124.528 136.921 121.126L116.125 91.7401ZM117.656 91.3269C115.708 91.4269 114.072 91.756 113.407 91.8896L120.495 127.185C120.666 127.151 120.619 127.163 120.479 127.184C120.329 127.207 119.982 127.255 119.502 127.279L117.656 91.3269ZM113.643 91.8438C112.55 92.048 111.65 92.3153 111.002 92.5339C110.365 92.749 109.862 92.9555 109.608 93.062C109.476 93.1172 109.366 93.1647 109.321 93.1842C109.248 93.2157 109.28 93.2022 109.291 93.1972C109.33 93.1805 109.616 93.0574 110.009 92.9138L122.358 126.729C122.881 126.539 123.296 126.362 123.462 126.291C123.509 126.271 123.549 126.254 123.574 126.242C123.587 126.237 123.599 126.232 123.607 126.228C123.615 126.225 123.62 126.223 123.623 126.221C123.642 126.213 123.595 126.234 123.527 126.262C123.4 126.315 123.024 126.472 122.514 126.644C121.994 126.819 121.222 127.051 120.259 127.231L113.643 91.8438ZM98.4848 106.544C98.4628 106.663 98.4457 106.761 98.4359 106.818C98.4307 106.848 98.4263 106.874 98.4233 106.892C98.4206 106.908 98.4178 106.924 98.4171 106.929C98.4158 106.936 98.4161 106.934 98.4169 106.93C98.4177 106.925 98.42 106.912 98.4231 106.894C98.4287 106.861 98.4417 106.787 98.4601 106.689L133.843 113.326C133.867 113.198 133.885 113.093 133.896 113.03C133.907 112.968 133.916 112.913 133.918 112.9C133.923 112.874 133.92 112.893 133.916 112.916C133.911 112.942 133.899 113.01 133.883 113.099L98.4848 106.544ZM106.873 125.432C106.703 125.329 106.592 125.256 106.606 125.266C106.615 125.271 106.624 125.277 106.678 125.312C106.72 125.34 106.798 125.391 106.885 125.447C107.202 125.652 108.034 126.188 109.116 126.73L125.236 94.5406C125.616 94.7309 125.914 94.901 126.108 95.0159C126.205 95.074 126.283 95.1219 126.335 95.1544C126.386 95.1865 126.42 95.2082 126.426 95.2121C126.429 95.2142 126.424 95.2108 126.382 95.1835C126.366 95.173 126.337 95.154 126.309 95.1361C126.28 95.117 126.244 95.0932 126.203 95.0668C126.123 95.0148 126.013 94.9443 125.887 94.8644C125.759 94.784 125.605 94.688 125.43 94.5825L106.873 125.432ZM109.353 126.846C110.962 127.622 113.027 128.582 114.321 129.197L129.786 96.6884C127.828 95.7571 126.642 95.2168 124.999 94.4238L109.353 126.846ZM114.148 129.114C113.966 129.025 113.845 128.96 113.821 128.946C113.809 128.94 113.818 128.944 113.96 129.025C114.064 129.083 114.303 129.218 114.562 129.36C114.835 129.509 115.207 129.706 115.644 129.92L131.466 97.5834C131.647 97.672 131.767 97.7371 131.79 97.7499C131.801 97.7554 131.792 97.7508 131.648 97.6698C131.543 97.6105 131.304 97.4752 131.043 97.333C130.769 97.1837 130.397 96.9859 129.958 96.7717L114.148 129.114ZM115.373 129.785C111.064 127.586 109.873 123.925 110.105 124.521L143.646 111.445C142.512 108.534 139.526 101.694 131.737 97.7186L115.373 129.785ZM110.071 124.433C109.325 122.489 108.156 117.947 110.413 112.765L143.42 127.137C146.253 120.63 144.914 114.747 143.68 111.533L110.071 124.433ZM110.477 112.62C110.716 112.084 113.166 106.154 120.23 103.458C127.444 100.704 133.286 103.623 134.072 104.005L118.361 136.395C119.523 136.959 125.637 139.927 133.068 137.091C140.349 134.312 142.961 128.167 143.356 127.282L110.477 112.62ZM133.884 103.915C131.199 102.65 126.882 100.841 121.532 100.403L118.596 136.283C118.057 136.239 117.744 136.139 117.738 136.137C117.736 136.136 117.799 136.156 117.938 136.213C118.08 136.271 118.276 136.357 118.549 136.485L133.884 103.915ZM121.126 100.374C121.307 100.385 121.452 100.397 121.543 100.404C121.589 100.408 121.626 100.412 121.65 100.414C121.673 100.416 121.689 100.418 121.69 100.418C121.763 100.425 121.469 100.395 121.185 100.373C120.583 100.327 118.967 100.219 116.949 100.514L122.16 136.135C120.312 136.405 118.865 136.301 118.433 136.268C118.235 136.253 118.025 136.231 118.183 136.247C118.242 136.253 118.584 136.287 119.002 136.312L121.126 100.374ZM117.669 100.423C119.577 100.222 121.125 100.613 121.972 100.935C122.591 101.171 122.733 101.341 121.832 100.755L102.198 130.93C104.754 132.593 111.816 137.239 121.44 136.225L117.669 100.423ZM121.65 100.638C122.09 100.917 122.415 101.163 122.616 101.323C122.814 101.481 122.933 101.59 122.943 101.599L98.6706 128.186C99.4051 128.856 100.684 129.972 102.381 131.047L121.65 100.638ZM123.175 101.814C121.125 99.8756 117.73 97.524 112.986 96.7795C107.857 95.9745 103.016 97.3553 99.304 99.9331L119.839 129.502C116.532 131.799 112.114 133.083 107.405 132.344C103.08 131.665 100.101 129.542 98.4389 127.97L123.175 101.814ZM99.2263 99.9874C98.9752 100.164 95.5099 102.398 93.0036 106.317L123.332 125.712C122.273 127.369 121.166 128.405 120.642 128.863C120.123 129.316 119.729 129.58 119.916 129.448L99.2263 99.9874ZM93.0653 106.221C91.5175 108.608 90.572 110.958 90.2045 111.853L123.508 125.524C123.586 125.333 123.636 125.214 123.674 125.126C123.711 125.041 123.722 125.019 123.712 125.038C123.702 125.059 123.663 125.141 123.594 125.267C123.525 125.394 123.418 125.58 123.271 125.808L93.0653 106.221ZM90.2439 111.758C89.8255 112.76 89.4494 113.738 89.1735 114.452C88.8686 115.241 88.664 115.768 88.4619 116.253L121.686 130.115C122.104 129.112 122.48 128.135 122.756 127.421C123.061 126.631 123.266 126.104 123.468 125.619L90.2439 111.758ZM88.5035 116.154C89.1135 114.716 89.8125 113.618 90.3463 112.878C90.8679 112.154 91.3265 111.645 91.5179 111.436C91.6425 111.3 91.8633 111.071 91.6132 111.332C91.4957 111.454 91.0759 111.889 90.6005 112.458L118.226 135.542C118.03 135.776 117.866 135.959 117.76 136.074C117.657 136.187 117.581 136.266 117.571 136.275C117.445 136.406 117.792 136.049 118.037 135.782C118.544 135.23 120.35 133.264 121.644 130.214L88.5035 116.154ZM118.024 112.221C117.711 111.859 117.438 111.569 117.352 111.478C117.194 111.309 117.304 111.426 117.381 111.512C117.495 111.637 117.766 111.939 118.094 112.361C118.427 112.79 118.875 113.412 119.335 114.21L88.1412 132.181C89.1904 134.002 90.319 135.26 90.7277 135.71C90.8471 135.842 90.9489 135.951 91.0108 136.017C91.0422 136.05 91.0703 136.08 91.0869 136.098C91.1079 136.12 91.1125 136.125 91.1187 136.132C91.1542 136.169 91.0014 136.009 90.8026 135.779L118.024 112.221ZM119.407 114.336C118.03 111.902 116.665 109.438 115.292 106.937L83.739 124.27C85.1501 126.839 86.5928 129.443 88.0694 132.055L119.407 114.336ZM115.233 106.831C115.074 106.546 111.666 99.603 103.291 97.4852C94.5454 95.2736 88.152 100.176 87.7067 100.488L108.351 129.98C107.97 130.247 106.633 131.17 104.62 131.898C102.384 132.706 98.7429 133.468 94.4651 132.387C90.2598 131.323 87.5122 128.998 86.0567 127.443C84.7145 126.009 83.988 124.717 83.7977 124.376L115.233 106.831ZM87.7578 100.452C86.5912 101.263 85.1152 102.458 83.6979 104.145L111.259 127.305C110.155 128.618 109.061 129.487 108.3 130.016L87.7578 100.452ZM83.6889 104.156C84.2912 103.438 84.8774 103.013 85.1846 102.821C85.4371 102.664 85.4401 102.704 84.8945 102.917L98.0205 136.439C101.394 135.118 106.801 132.619 111.268 127.294L83.6889 104.156ZM84.9857 102.882C87.0295 102.094 88.6798 102.02 89.2108 102.009C89.4693 102.004 89.5994 102.014 89.4131 102.006C89.3114 102.001 89.2302 101.997 89.0201 101.987C88.8445 101.978 88.5858 101.965 88.301 101.955L86.9886 137.931C87.2795 137.941 87.0735 137.937 87.8019 137.97C88.2583 137.99 89.031 138.02 89.9291 138.002C91.739 137.966 94.6558 137.736 97.9293 136.475L84.9857 102.882ZM88.2799 101.954C88.1826 101.951 88.0915 101.948 88.0232 101.945C87.9468 101.943 87.9009 101.942 87.8538 101.94C87.7617 101.937 87.7537 101.936 87.7811 101.938C87.8123 101.939 87.9184 101.945 88.0741 101.959C88.231 101.973 88.4617 101.998 88.747 102.041L83.3938 137.64C84.4508 137.799 85.3506 137.86 85.9175 137.889C86.2082 137.904 86.4649 137.914 86.6382 137.919C86.9125 137.929 86.8513 137.926 87.0097 137.932L88.2799 101.954ZM88.7846 102.046C81.1206 100.877 75.5169 104.226 73.7114 105.346L92.6927 135.936C92.6662 135.952 88.8662 138.475 83.3562 137.635L88.7846 102.046ZM73.6108 105.409C74.204 105.036 75.0258 104.609 76.0935 104.275L86.8387 138.634C89.1254 137.919 91.1195 136.927 92.7934 135.873L73.6108 105.409ZM76.0674 104.283C79.7863 103.114 86.0246 102.775 91.6474 107.093C96.7657 111.023 98.0149 116.282 98.2622 118.971L62.4134 122.268C62.7235 125.639 64.215 131.417 69.7209 135.645C75.7313 140.261 82.5024 139.998 86.8648 138.626L76.0674 104.283ZM98.2488 118.832C98.4943 121.292 98.1225 123.968 96.9859 126.497C95.9109 128.889 94.4654 130.459 93.4782 131.341L69.481 104.506C65.4828 108.081 61.6131 114.254 62.4268 122.407L98.2488 118.832ZM93.4806 131.339C92.8418 131.911 92.3019 132.218 92.0815 132.332C91.9007 132.425 91.9308 132.389 92.4457 132.205L80.3372 98.3023C77.9543 99.1534 73.5669 100.851 69.4786 104.508L93.4806 131.339ZM92.4088 132.218C92.269 132.268 92.1999 132.282 92.8062 132.107C93.2264 131.986 94.271 131.69 95.3985 131.281L83.1191 97.4401C83.2988 97.3749 83.378 97.3593 82.8356 97.5157C82.4793 97.6184 81.4504 97.9074 80.374 98.2892L92.4088 132.218ZM95.3324 131.305C97.1248 130.663 98.7307 129.927 99.6437 129.511L84.7159 96.7517C83.7123 97.2091 83.379 97.3468 83.1852 97.4163L95.3324 131.305ZM99.5404 129.558C100.836 128.977 101.86 128.345 102.587 127.846C103.298 127.358 103.838 126.919 104.1 126.701C104.236 126.589 104.35 126.492 104.39 126.457C104.457 126.4 104.427 126.427 104.402 126.448C104.344 126.496 104.022 126.768 103.563 127.098L82.5058 97.8994C81.9011 98.3354 81.4383 98.7212 81.2422 98.886C81.1481 98.9651 81.0488 99.05 81.0472 99.0513C81.0194 99.075 81.0648 99.0361 81.1315 98.9808C81.2561 98.8776 81.6569 98.5477 82.2234 98.1591C82.8062 97.7593 83.6812 97.215 84.8193 96.705L99.5404 129.558ZM111.034 112.349C111.032 112.098 111.025 111.879 111.017 111.703C111.01 111.527 111.001 111.378 110.994 111.267C110.986 111.157 110.98 111.067 110.976 111.015C110.973 110.988 110.972 110.965 110.97 110.952C110.97 110.945 110.969 110.939 110.969 110.935C110.968 110.926 110.969 110.934 110.969 110.928C110.968 110.92 110.971 110.953 110.974 110.995C110.977 111.041 110.983 111.116 110.989 111.211C111 111.395 111.016 111.703 111.02 112.088L75.022 112.447C75.0241 112.663 75.0298 112.856 75.0364 113.021C75.043 113.186 75.051 113.33 75.0581 113.445C75.0653 113.56 75.0722 113.656 75.0772 113.721C75.0819 113.783 75.0862 113.835 75.0871 113.847C75.0881 113.859 75.0877 113.854 75.0876 113.853C75.0873 113.849 75.0862 113.836 75.0849 113.818C75.0822 113.785 75.0768 113.714 75.0708 113.623C75.0648 113.53 75.057 113.4 75.0502 113.242C75.0434 113.084 75.037 112.883 75.0351 112.649L111.034 112.349Z" fill="white" mask="url(#path-2-inside-1_95_186)"/>
<path d="M98.7894 162.427C101.484 157.76 108.219 157.76 110.914 162.427L119.141 176.677C121.835 181.343 118.467 187.177 113.079 187.177H96.6243C91.2357 187.177 87.8679 181.343 90.5622 176.677L98.7894 162.427Z" fill="#FF0000"/>
<path d="M54.2338 131.354C59.6206 131.215 63.1385 136.959 60.566 141.694L52.7109 156.152C50.1384 160.887 43.4049 161.062 40.5906 156.466L31.9968 142.434C29.1825 137.839 32.398 131.921 37.7848 131.781L54.2338 131.354Z" fill="#7300FF"/>
<path d="M148.812 142.852C146.118 138.185 149.486 132.352 154.874 132.352L171.329 132.352C176.717 132.352 180.085 138.185 177.391 142.852L169.164 157.102C166.469 161.768 159.734 161.768 157.039 157.102L148.812 142.852Z" fill="#FFCC00"/>
<path d="M154.119 84.2111C148.734 84.0153 145.58 78.0635 148.443 73.4978L157.182 59.5561C160.044 54.9903 166.775 55.235 169.298 59.9965L177.003 74.536C179.526 79.2975 175.948 85.0046 170.563 84.8088L154.119 84.2111Z" fill="#28CA00"/>
<path d="M109.562 52.5C106.868 57.1667 100.132 57.1667 97.4378 52.5L89.2106 38.25C86.5163 33.5833 89.8842 27.75 95.2728 27.75L111.727 27.75C117.116 27.75 120.484 33.5833 117.789 38.25L109.562 52.5Z" fill="#FF4D00"/>
<path d="M59.369 73.2838C62.0771 77.9424 58.7265 83.7857 53.338 83.8017L36.8835 83.8505C31.495 83.8665 28.1098 78.0432 30.7903 73.3685L38.9752 59.0942C41.6557 54.4196 48.3914 54.3996 51.0995 59.0582L59.369 73.2838Z" fill="#00AAFF"/>
<defs>
<linearGradient id="paint0_linear_95_186" x1="105" y1="85" x2="105" y2="124" gradientUnits="userSpaceOnUse">
<stop stop-color="white"/>
<stop offset="1" stop-color="#999999"/>
</linearGradient>
</defs>
</svg>
